<svg width="14" height="17" viewBox="0 0 14 17" fill="none" xmlns="http://www.w3.org/2000/svg">
<path d="M6.8 8.5C7.2675 8.5 7.66785 8.3334 8.00105 8.0002C8.33368 7.66757 8.5 7.2675 8.5 6.8C8.5 6.3325 8.33368 5.93215 8.00105 5.59895C7.66785 5.26632 7.2675 5.1 6.8 5.1C6.3325 5.1 5.93243 5.26632 5.5998 5.59895C5.2666 5.93215 5.1 6.3325 5.1 6.8C5.1 7.2675 5.2666 7.66757 5.5998 8.0002C5.93243 8.3334 6.3325 8.5 6.8 8.5ZM6.8 17C4.51917 15.0592 2.81577 13.2563 1.6898 11.5915C0.563267 9.92715 0 8.38667 0 6.97C0 4.845 0.683683 3.15208 2.05105 1.89125C3.41785 0.630417 5.00083 0 6.8 0C8.59917 0 10.1821 0.630417 11.5489 1.89125C12.9163 3.15208 13.6 4.845 13.6 6.97C13.6 8.38667 13.037 9.92715 11.911 11.5915C10.7845 13.2563 9.08083 15.0592 6.8 17Z" fill="#040618"/>
</svg>
