<svg width="18" height="16" viewBox="0 0 18 16" fill="none" xmlns="http://www.w3.org/2000/svg">
<path d="M17 7V11C17 13.8 15.4 15 13 15H5C2.6 15 1 13.8 1 11V5.4C1 2.6 2.6 1.4 5 1.4H10.6" stroke="white" stroke-miterlimit="10" stroke-linecap="round" stroke-linejoin="round"/>
<path d="M5 5.8L7.504 7.8C8.328 8.456 9.68 8.456 10.504 7.8L11.448 7.048" stroke="white" stroke-miterlimit="10" stroke-linecap="round" stroke-linejoin="round"/>
<path d="M15 5C16.1046 5 17 4.10457 17 3C17 1.89543 16.1046 1 15 1C13.8954 1 13 1.89543 13 3C13 4.10457 13.8954 5 15 5Z" stroke="white" stroke-miterlimit="10" stroke-linecap="round" stroke-linejoin="round"/>
</svg>
